<svg width="192" height="192" viewBox="0 0 192 192" fill="none" xmlns="http://www.w3.org/2000/svg">
<path d="M48.7087 59.2431C59.2027 38.9761 76.0417 22.878 98.757 11.3972C99.8993 10.8199 101.354 10.8759 102.426 11.5391C103.497 12.2024 103.968 13.3375 103.612 14.402C101.437 20.9165 107.935 27.3615 116.928 36.2821C130.463 49.708 149 68.0952 149 99.7363C149 124.13 134.127 142.746 120.207 152.034C112.495 157.18 104.409 159.993 97.3497 160.079C99.1401 165.06 101.158 169.44 103.385 173.108C104.191 174.437 103.537 176.052 101.925 176.716C101.456 176.909 100.958 177 100.467 177C99.2698 177 98.1167 176.455 97.5448 175.513C94.9952 171.313 92.7078 166.244 90.7085 160.458C89.8784 160.553 89.0339 160.603 88.1746 160.603C83.1008 160.603 77.5391 158.961 71.771 155.727C62.9689 150.79 54.6892 142.706 48.4575 132.962C41.616 122.265 38 110.776 38 99.7359C38 95.0886 38.7722 78.4338 48.7087 59.2431Z" fill="#8CBD23"/>
<path d="M100.544 136.44C93.92 136.44 88.784 134.664 85.136 131.112C81.488 127.464 79.664 122.232 79.664 115.416V73.8H71.024V67.32H79.664V54.36L86.864 45.72H98.384V67.32H114.224V73.8H98.384V116.28C98.384 121.464 99.008 125.064 100.256 127.08C101.504 129 103.376 129.96 105.872 129.96C108.56 129.96 111.248 129.336 113.936 128.088C114.992 127.512 116.096 126.84 117.248 126.072L119.264 130.104C118.016 131.16 116.528 132.216 114.8 133.272C110.768 135.384 106.016 136.44 100.544 136.44Z" fill="black"/>
</svg>
