<svg width="625" height="195" viewBox="0 0 625 195" fill="none" xmlns="http://www.w3.org/2000/svg">
  <path d="M260.052 78.088C263.642 55.5494 274.566 34.9735 292.52 16.9332C293.423 16.0261 294.822 15.6218 296.047 15.9145C297.273 16.2074 298.076 17.137 298.074 18.2591C298.057 25.1272 306.252 29.2024 317.593 34.8432C334.663 43.3329 358.041 54.9597 367.989 84.9963C375.659 108.153 367.393 130.501 357.099 143.694C351.396 151.005 344.604 156.217 337.93 158.518C341.195 162.683 344.488 166.207 347.755 168.989C348.938 169.996 348.825 171.735 347.503 172.873C347.119 173.203 346.675 173.446 346.209 173.601C345.072 173.977 343.806 173.822 342.967 173.108C339.227 169.923 335.461 165.83 331.745 160.966C330.986 161.317 330.2 161.63 329.384 161.9C324.568 163.495 318.772 163.685 312.28 162.428C302.372 160.51 291.97 155.439 282.991 148.148C273.134 140.144 266.089 130.374 262.618 119.894C261.157 115.483 256.653 99.4296 260.052 78.088Z" fill="#99CF26"/>
  <path d="M317.544 139.44C310.92 139.44 305.784 137.664 302.136 134.112C298.488 130.464 296.664 125.232 296.664 118.416V76.8002H288.024V70.3202H296.664V57.3602L303.864 48.7202H315.384V70.3202H331.224V76.8002H315.384V119.28C315.384 124.464 316.008 128.064 317.256 130.08C318.504 132 320.376 132.96 322.872 132.96C325.56 132.96 328.248 132.336 330.936 131.088C331.992 130.512 333.096 129.84 334.248 129.072L336.264 133.104C335.016 134.16 333.528 135.216 331.8 136.272C327.768 138.384 323.016 139.44 317.544 139.44Z" fill="black"/>
  <path d="M403.864 71.7602C405.592 73.0082 406.84 74.4002 407.608 75.9362C408.376 77.3762 408.76 78.1442 408.76 78.2402L401.416 83.8562C400.744 82.9922 399.88 82.0802 398.824 81.1202C396.712 79.2002 394.264 78.2402 391.48 78.2402C385.912 78.2402 381.64 79.7282 378.664 82.7042L378.952 84.8642C379.144 86.5922 379.24 88.1762 379.24 89.6162V138H360.52V89.0402C360.52 84.1442 359.848 80.5442 358.504 78.2402C357.256 75.8402 354.616 74.6402 350.584 74.6402H349.144V70.3202H363.4C366.664 70.3202 369.208 70.7522 371.032 71.6162C372.952 72.3842 374.44 73.7282 375.496 75.6482C380.68 71.1362 386.728 68.8802 393.64 68.8802C397.768 68.8802 401.176 69.8402 403.864 71.7602ZM437.844 139.44C430.068 139.44 424.02 137.712 419.7 134.256C415.476 130.704 413.364 125.952 413.364 120C413.364 115.2 414.468 111.216 416.676 108.048C418.98 104.88 422.964 102.48 428.628 100.848C434.292 99.2162 442.164 98.4002 452.244 98.4002H454.404C454.404 90.0482 453.252 84.1442 450.948 80.6882C448.644 77.1362 445.236 75.3602 440.724 75.3602C436.98 75.3602 433.908 76.2722 431.508 78.0962C429.108 79.9202 427.38 83.3282 426.324 88.3202H418.404C418.404 85.0562 418.596 82.2722 418.98 79.9682C419.46 77.6642 420.468 75.6482 422.004 73.9202C424.98 70.5602 432.18 68.8802 443.604 68.8802C453.204 68.8802 460.5 71.4242 465.492 76.5122C470.58 81.5042 473.124 89.0402 473.124 99.1202V138H460.884L455.844 131.52H455.124C454.26 132.864 452.916 134.208 451.092 135.552C447.828 138.144 443.412 139.44 437.844 139.44ZM442.164 132.24C444.18 132.24 445.908 131.856 447.348 131.088C448.788 130.224 450.18 129.072 451.523 127.632C452.772 126.288 453.732 124.704 454.404 122.88V104.88H452.244C445.428 104.88 440.484 106.128 437.412 108.624C434.34 111.024 432.804 114.816 432.804 120C432.804 123.936 433.62 126.96 435.252 129.072C436.884 131.184 439.188 132.24 442.164 132.24ZM520.369 139.44C512.977 139.44 506.689 137.856 501.505 134.688C496.321 131.52 492.385 127.296 489.697 122.016C487.105 116.64 485.809 110.688 485.809 104.16C485.809 97.6322 487.105 91.7282 489.697 86.4482C492.385 81.0722 496.321 76.8002 501.505 73.6322C506.689 70.4642 512.977 68.8802 520.369 68.8802C531.889 68.8802 539.329 70.5602 542.689 73.9202C544.321 75.5522 545.329 77.7122 545.713 80.4002C546.097 83.0882 546.289 87.6482 546.289 94.0802H541.969C541.585 88.0322 539.713 83.4242 536.353 80.2562C532.993 76.9922 528.385 75.3602 522.529 75.3602C517.249 75.3602 513.025 77.8082 509.857 82.7042C506.785 87.5042 505.249 94.6562 505.249 104.16C505.249 123.36 511.249 132.96 523.249 132.96C527.857 132.96 531.697 131.952 534.769 129.936C537.937 127.824 540.961 124.848 543.841 121.008L548.305 124.32C545.521 128.64 542.017 132.24 537.793 135.12C533.569 138 527.761 139.44 520.369 139.44ZM614.703 139.44C610.479 139.44 606.591 138.576 603.039 136.848C599.583 135.024 596.319 132.048 593.247 127.92L579.423 109.776V138H560.703V61.6802C560.703 56.7842 560.031 53.1842 558.687 50.8802C557.343 48.4802 554.655 47.2802 550.622 47.2802H549.182V42.9602H566.463C569.919 42.9602 572.559 43.5362 574.383 44.6882C576.207 45.8402 577.503 47.7602 578.271 50.4482C579.039 53.0402 579.423 56.7842 579.423 61.6802V102.72L596.847 81.4082C600.111 77.4722 603.183 74.6402 606.063 72.9122C608.943 71.1842 612.783 70.3202 617.583 70.3202H620.463V74.0642C617.583 74.0642 614.991 74.6402 612.687 75.7922C610.383 76.9442 608.175 78.7682 606.063 81.2642L592.095 98.2562L611.247 123.6C615.855 129.84 620.319 133.488 624.639 134.544V138C623.871 138.384 622.431 138.72 620.319 139.008C618.303 139.296 616.431 139.44 614.703 139.44Z" fill="black" class="text"/>
  <path d="M11.52 89.0402C11.52 84.1442 10.848 80.5442 9.504 78.2402C8.256 75.8402 5.616 74.6402 1.584 74.6402H0.144V70.3202H14.4C17.76 70.3202 20.352 70.8002 22.176 71.7602C24 72.6242 25.44 74.1602 26.496 76.3682C32.16 71.3762 38.688 68.8802 46.08 68.8802C55.776 68.8802 63.216 72.1922 68.4 78.8162C73.68 85.3442 76.32 93.7922 76.32 104.16C76.32 114.528 73.632 123.024 68.256 129.648C62.976 136.176 55.344 139.44 45.36 139.44C41.424 139.44 37.728 138.72 34.272 137.28C32.736 136.704 31.392 135.984 30.24 135.12V165.36H11.52V89.0402ZM42.48 132.96C52.08 132.96 56.88 123.36 56.88 104.16C56.88 95.3282 55.776 88.3202 53.568 83.1362C51.36 77.9522 47.904 75.3602 43.2 75.3602C37.824 75.3602 33.168 77.3282 29.232 81.2642L29.664 83.2802C30.048 84.4322 30.24 86.0642 30.24 88.1762V128.64C31.296 129.504 32.448 130.224 33.696 130.8C36.384 132.24 39.312 132.96 42.48 132.96ZM90.9191 61.6802C90.9191 56.7842 90.2471 53.1842 88.9031 50.8802C87.5591 48.4802 84.8711 47.2802 80.8391 47.2802H79.3991V42.9602H96.6791C100.135 42.9602 102.775 43.5362 104.599 44.6882C106.423 45.8402 107.719 47.7602 108.487 50.4482C109.255 53.0402 109.639 56.7842 109.639 61.6802V138H90.9191V61.6802ZM147.484 139.44C139.708 139.44 133.66 137.712 129.34 134.256C125.116 130.704 123.004 125.952 123.004 120C123.004 115.2 124.108 111.216 126.316 108.048C128.62 104.88 132.604 102.48 138.268 100.848C143.932 99.2162 151.804 98.4002 161.884 98.4002H164.044C164.044 90.0482 162.892 84.1442 160.588 80.6882C158.284 77.1362 154.876 75.3602 150.364 75.3602C146.62 75.3602 143.548 76.2722 141.148 78.0962C138.748 79.9202 137.02 83.3282 135.964 88.3202H128.044C128.044 85.0562 128.236 82.2722 128.62 79.9682C129.1 77.6642 130.108 75.6482 131.644 73.9202C134.62 70.5602 141.82 68.8802 153.244 68.8802C162.844 68.8802 170.14 71.4242 175.132 76.5122C180.22 81.5042 182.764 89.0402 182.764 99.1202V138H170.524L165.484 131.52H164.764C163.9 132.864 162.556 134.208 160.732 135.552C157.468 138.144 153.052 139.44 147.484 139.44ZM151.804 132.24C153.82 132.24 155.548 131.856 156.988 131.088C158.428 130.224 159.82 129.072 161.164 127.632C162.412 126.288 163.372 124.704 164.044 122.88V104.88H161.884C155.068 104.88 150.124 106.128 147.052 108.624C143.98 111.024 142.444 114.816 142.444 120C142.444 123.936 143.26 126.96 144.892 129.072C146.524 131.184 148.828 132.24 151.804 132.24ZM201.786 89.0402C201.786 84.1442 201.114 80.5442 199.77 78.2402C198.522 75.8402 195.882 74.6402 191.85 74.6402H190.41V70.3202H204.666C207.93 70.3202 210.474 70.7522 212.298 71.6162C214.218 72.3842 215.706 73.7282 216.762 75.6482C221.658 71.1362 228.666 68.8802 237.786 68.8802C246.906 68.8802 253.722 71.0402 258.234 75.3602C262.842 79.5842 265.146 86.2562 265.146 95.3762V138H246.426V95.2322C246.426 88.6082 245.178 83.7602 242.682 80.6882C240.282 77.6162 236.97 76.0802 232.746 76.0802C229.77 76.0802 227.13 76.5122 224.826 77.3762C222.618 78.1442 220.842 79.2002 219.498 80.5442L219.93 82.5602C220.314 83.7122 220.506 85.5842 220.506 88.1762V138H201.786V89.0402Z" fill="black" class="text"/>
</svg>
